<svg id="svg" version="1.1" xmlns="http://www.w3.org/2000/svg" xmlns:xlink="http://www.w3.org/1999/xlink" width="400" height="370.15825169555393" viewBox="0, 0, 400,370.15825169555393"><g id="svgg"><path id="path0" d="M240.844 119.855 C 177.536 225.791,178.083 224.847,176.629 230.481 C 173.747 241.645,178.125 252.246,187.460 256.709 C 203.493 264.373,219.840 261.881,231.721 249.959 C 235.415 246.253,236.915 244.037,246.358 228.335 C 251.244 220.211,281.843 169.428,314.357 115.483 C 346.872 61.538,373.474 17.352,373.474 17.291 C 373.474 17.231,357.434 17.188,337.830 17.196 L 302.185 17.210 240.844 119.855 M196.081 271.891 C 197.066 272.886,197.939 273.700,198.022 273.700 C 198.105 273.700,197.367 272.886,196.383 271.891 C 195.398 270.897,194.525 270.083,194.442 270.083 C 194.359 270.083,195.097 270.897,196.081 271.891 M195.931 270.177 C 195.931 270.229,196.372 270.670,196.910 271.157 L 197.890 272.042 197.005 271.063 C 196.179 270.149,195.931 269.944,195.931 270.177 M132.312 271.816 L 131.274 272.946 132.404 271.908 C 133.456 270.941,133.673 270.686,133.443 270.686 C 133.392 270.686,132.884 271.194,132.312 271.816 M209.264 301.733 C 209.264 302.313,209.326 302.551,209.401 302.261 C 209.477 301.971,209.477 301.496,209.401 301.206 C 209.326 300.916,209.264 301.153,209.264 301.733 M119.159 303.693 C 119.161 304.687,119.217 305.058,119.284 304.516 C 119.351 303.974,119.350 303.160,119.281 302.707 C 119.212 302.255,119.157 302.698,119.159 303.693 M209.264 305.652 C 209.264 306.232,209.326 306.469,209.401 306.179 C 209.477 305.889,209.477 305.414,209.401 305.124 C 209.326 304.834,209.264 305.072,209.264 305.652 M131.123 334.439 C 131.685 335.019,132.213 335.494,132.296 335.494 C 132.379 335.494,131.987 335.019,131.424 334.439 C 130.862 333.858,130.334 333.384,130.251 333.384 C 130.168 333.384,130.560 333.858,131.123 334.439 M196.673 336.473 L 195.177 338.056 196.760 336.560 C 198.230 335.170,198.480 334.891,198.255 334.891 C 198.208 334.891,197.496 335.603,196.673 336.473 M132.630 335.889 C 132.630 335.941,133.071 336.382,133.610 336.869 L 134.589 337.754 133.704 336.775 C 132.879 335.862,132.630 335.656,132.630 335.889 " stroke="none" fill="#7b4ca3" fill-rule="evenodd"></path><path id="path1" d="M232.404 250.641 C 231.672 251.387,231.140 251.997,231.223 251.997 C 231.306 251.997,231.973 251.387,232.705 250.641 C 233.438 249.894,233.969 249.284,233.886 249.284 C 233.803 249.284,233.136 249.894,232.404 250.641 M159.457 258.953 C 123.343 263.003,106.465 306.520,130.546 333.493 C 157.111 363.247,205.948 346.841,209.174 307.079 C 211.424 279.342,187.154 255.847,159.457 258.953 " stroke="none" fill="#541c8c" fill-rule="evenodd"></path><path id="path2" d="M301.511 16.654 C 300.427 18.032,178.367 222.672,177.769 224.115 C 171.660 238.847,175.230 251.683,187.038 257.440 C 203.376 265.406,219.888 262.971,232.113 250.791 C 235.869 247.050,237.509 244.795,242.414 236.624 C 244.654 232.894,275.143 182.298,310.169 124.190 C 379.998 8.341,374.619 17.383,374.084 16.738 C 373.563 16.111,302.004 16.027,301.511 16.654 M366.434 29.314 C 362.406 35.987,332.147 86.209,299.192 140.919 C 231.678 253.003,236.494 245.212,231.811 249.901 C 220.204 261.520,205.971 264.290,190.130 258.011 C 176.384 252.563,171.856 238.805,178.845 223.721 C 179.213 222.926,207.103 176.130,240.822 119.729 L 302.129 17.182 337.943 17.182 L 373.757 17.182 366.434 29.314 M178.561 69.560 C 178.288 69.739,140.781 132.989,121.857 165.185 C 119.469 169.246,116.818 173.756,115.965 175.205 C 114.680 177.390,114.366 177.751,114.126 177.315 C 113.049 175.352,84.795 126.523,84.215 125.622 L 83.488 124.491 47.810 124.491 C 8.034 124.491,10.661 124.347,11.917 126.457 C 12.243 127.003,29.058 154.881,49.284 188.407 L 86.059 249.363 88.748 251.450 C 105.168 264.197,123.144 264.489,138.959 252.267 C 144.861 247.705,140.116 255.220,198.041 158.719 C 253.640 66.093,251.148 70.336,250.314 69.726 C 249.713 69.286,179.229 69.123,178.561 69.560 M249.771 70.704 C 249.431 71.589,144.912 245.515,144.176 246.420 C 142.978 247.893,138.999 251.283,136.228 253.190 C 121.031 263.653,104.148 262.613,88.597 250.256 C 86.846 248.865,85.950 247.415,49.983 187.792 C 29.731 154.220,12.965 126.446,12.724 126.073 L 12.288 125.393 47.759 125.470 L 83.230 125.546 98.789 152.457 C 107.347 167.257,114.449 179.262,114.572 179.133 C 114.695 179.005,129.061 154.755,146.495 125.245 C 163.930 95.735,178.390 71.285,178.629 70.912 L 179.064 70.234 214.508 70.234 C 246.491 70.234,249.934 70.280,249.771 70.704 M159.759 257.911 C 120.028 262.893,104.001 310.503,132.989 337.433 C 163.434 365.718,213.236 341.722,210.090 300.284 C 208.151 274.739,184.480 254.810,159.759 257.911 M171.982 259.234 C 208.389 265.458,222.201 310.618,195.548 336.289 C 168.468 362.371,123.192 345.693,119.353 308.223 C 116.319 278.620,142.551 254.203,171.982 259.234 " stroke="none" fill="#f3f0f5" fill-rule="evenodd"></path><path id="path3" d="M178.629 70.912 C 178.390 71.285,163.930 95.735,146.495 125.245 C 129.061 154.755,114.695 179.005,114.572 179.133 C 114.449 179.262,107.347 167.257,98.789 152.457 L 83.230 125.546 47.759 125.470 L 12.288 125.393 12.724 126.073 C 12.965 126.446,29.731 154.220,49.983 187.792 C 85.950 247.415,86.846 248.865,88.597 250.256 C 104.148 262.613,121.031 263.653,136.228 253.190 C 138.999 251.283,142.978 247.893,144.176 246.420 C 144.912 245.515,249.431 71.589,249.771 70.704 C 249.934 70.280,246.491 70.234,214.508 70.234 L 179.064 70.234 178.629 70.912 M204.607 261.263 C 205.483 261.324,206.839 261.323,207.621 261.261 C 208.403 261.199,207.687 261.149,206.029 261.150 C 204.371 261.151,203.731 261.201,204.607 261.263 M210.184 301.281 C 210.186 302.110,210.245 302.413,210.314 301.955 C 210.384 301.497,210.382 300.819,210.310 300.448 C 210.239 300.077,210.182 300.452,210.184 301.281 M210.180 306.255 C 210.180 307.001,210.239 307.306,210.311 306.933 C 210.383 306.560,210.383 305.950,210.311 305.576 C 210.239 305.203,210.180 305.509,210.180 306.255 M163.301 348.975 C 163.839 349.042,164.721 349.042,165.260 348.975 C 165.799 348.908,165.358 348.853,164.280 348.853 C 163.203 348.853,162.762 348.908,163.301 348.975 M163.451 349.877 C 163.907 349.946,164.653 349.946,165.109 349.877 C 165.565 349.808,165.192 349.751,164.280 349.751 C 163.369 349.751,162.995 349.808,163.451 349.877 " stroke="none" fill="#b39bcb" fill-rule="evenodd"></path><path id="path4" d="M303.965 8.139 C 297.338 8.856,298.715 7.161,281.937 35.237 C 274.051 48.434,266.835 60.501,265.902 62.053 C 263.842 65.479,263.811 65.494,262.189 63.809 C 259.380 60.891,258.288 60.825,215.072 60.967 C 177.210 61.093,178.014 61.055,174.981 62.833 C 173.265 63.838,175.107 60.830,145.441 111.078 C 131.052 135.448,119.028 155.656,118.721 155.983 C 117.883 156.873,118.043 157.120,106.873 137.754 C 95.067 117.288,95.311 117.613,91.017 116.628 C 88.790 116.117,19.885 115.858,14.840 116.341 C 9.285 116.874,7.311 117.913,6.455 120.759 C 5.416 124.212,5.651 132.069,6.876 134.825 C 7.560 136.364,80.117 256.682,81.283 258.211 C 86.757 265.389,101.710 271.755,114.996 272.564 C 121.440 272.957,120.876 272.670,119.538 274.872 C 108.958 292.288,109.598 320.865,120.949 337.905 C 131.280 353.414,146.624 360.944,167.898 360.944 C 190.816 360.944,207.562 351.801,217.274 333.986 C 225.927 318.115,226.070 293.889,217.609 277.293 C 216.592 275.298,215.820 273.605,215.893 273.531 C 215.967 273.458,217.517 273.129,219.337 272.802 C 234.862 270.006,244.163 262.946,254.075 246.434 C 255.952 243.307,286.304 192.938,321.524 134.501 C 356.744 76.065,385.813 27.759,386.121 27.154 C 386.968 25.494,387.340 22.904,387.335 18.709 C 387.326 11.445,386.210 9.542,381.296 8.413 C 379.415 7.981,307.775 7.727,303.965 8.139 M374.460 16.900 C 374.692 17.268,362.556 37.616,319.356 109.289 C 288.885 159.843,258.200 210.769,251.167 222.457 C 237.695 244.845,236.450 246.728,232.491 250.703 C 220.226 263.016,203.494 265.598,187.038 257.717 C 175.378 252.132,171.529 238.862,177.433 224.600 C 178.092 223.008,201.320 183.866,239.996 119.171 L 301.511 16.275 337.837 16.351 C 370.431 16.420,374.192 16.477,374.460 16.900 M250.892 69.983 C 251.447 70.863,146.524 245.376,143.663 248.330 C 129.334 263.128,109.504 265.426,92.389 254.272 C 86.259 250.278,87.022 251.262,76.372 233.609 C 17.383 135.839,11.427 125.892,11.513 125.291 L 11.605 124.642 47.694 124.565 L 83.783 124.489 84.207 125.168 C 84.440 125.542,91.321 137.431,99.496 151.588 C 113.035 175.032,114.399 177.278,114.779 176.758 C 115.009 176.444,129.212 152.449,146.343 123.436 C 163.473 94.424,177.711 70.380,177.983 70.006 L 178.478 69.327 214.526 69.403 C 247.798 69.474,250.599 69.519,250.892 69.983 M168.500 239.946 C 168.500 240.924,168.658 243.120,168.850 244.826 C 169.042 246.532,169.211 248.199,169.226 248.531 C 169.256 249.168,162.633 249.874,161.672 249.337 C 161.387 249.177,162.195 247.593,164.650 243.493 C 168.272 237.445,168.500 237.235,168.500 239.946 M174.529 258.719 C 211.325 267.553,223.006 314.021,194.602 338.577 C 164.615 364.503,118.298 343.316,118.341 303.693 C 118.366 280.201,134.813 261.408,158.402 257.915 C 161.370 257.476,171.442 257.978,174.529 258.719 " stroke="none" fill="#ffffff" fill-rule="evenodd"></path></g></svg>